<?xml version="1.0" encoding="UTF-8" standalone="no"?>
<svg
   xmlns:dc="http://purl.org/dc/elements/1.1/"
   xmlns:cc="http://creativecommons.org/ns#"
   xmlns:rdf="http://www.w3.org/1999/02/22-rdf-syntax-ns#"
   xmlns:svg="http://www.w3.org/2000/svg"
   xmlns="http://www.w3.org/2000/svg"
   xmlns:sodipodi="http://sodipodi.sourceforge.net/DTD/sodipodi-0.dtd"
   xmlns:inkscape="http://www.inkscape.org/namespaces/inkscape"
   width="210mm"
   height="297mm"
   viewBox="0 0 210 297"
   version="1.1"
   id="svg8"
   inkscape:version="1.0 (4035a4fb49, 2020-05-01)"
   sodipodi:docname="coffeecup.svg">
  <defs
     id="defs2" />
  <sodipodi:namedview
     id="base"
     pagecolor="#ffffff"
     bordercolor="#666666"
     borderopacity="1.0"
     inkscape:pageopacity="0.0"
     inkscape:pageshadow="2"
     inkscape:zoom="1"
     inkscape:cx="276.16667"
     inkscape:cy="560"
     inkscape:document-units="mm"
     inkscape:current-layer="layer1"
     inkscape:document-rotation="0"
     showgrid="false"
     inkscape:snap-global="true"
     inkscape:window-width="1920"
     inkscape:window-height="1014"
     inkscape:window-x="-8"
     inkscape:window-y="-8"
     inkscape:window-maximized="1" />
  <metadata
     id="metadata5">
    <rdf:RDF>
      <cc:Work
         rdf:about="">
        <dc:format>image/svg+xml</dc:format>
        <dc:type
           rdf:resource="http://purl.org/dc/dcmitype/StillImage" />
        <dc:title />
      </cc:Work>
    </rdf:RDF>
  </metadata>
  <g
     inkscape:label="Layer 1"
     inkscape:groupmode="layer"
     id="layer1">
    <path
       style="fill:none;fill-opacity:1;stroke:#ffffff;stroke-opacity:1;stroke-width:2.1;stroke-miterlimit:4;stroke-dasharray:none"
       d="m 43.931997,90.839261 c 0,0 26.003454,8.274022 23.01799,14.593989 -2.105322,4.45678 -13.140985,7.08145 -10.977811,11.53105 2.338069,4.80936 13.810795,12.79226 13.810795,12.79226"
       id="path28"
       sodipodi:nodetypes="cssc" />
    <path
       sodipodi:nodetypes="cssc"
       id="path853"
       d="m 103.42469,90.839261 c 0,0 26.00345,8.274022 23.01799,14.593989 -2.10532,4.45678 -13.14099,7.08145 -10.97781,11.53105 2.33807,4.80936 13.81079,12.79226 13.81079,12.79226"
       style="fill:none;fill-opacity:1;stroke:#ffffff;stroke-opacity:1;stroke-width:1.5;stroke-miterlimit:4;stroke-dasharray:none" />
    <path
       style="fill:none;fill-opacity:1;stroke:#ffffff;stroke-opacity:1;stroke-width:2;stroke-miterlimit:4;stroke-dasharray:none"
       d="m 133.03227,98.341788 c 0,0 17.36838,6.731732 15.37431,11.873652 -1.4062,3.62602 -8.77722,5.76146 -7.33238,9.38164 1.56166,3.91289 9.22461,10.40777 9.22461,10.40777"
       id="path855"
       sodipodi:nodetypes="cssc" />
    <path
       sodipodi:nodetypes="cssc"
       id="path857"
       d="m 81.330284,98.341788 c 0,0 17.368302,6.731732 15.374246,11.873652 -1.4062,3.62602 -8.777173,5.76146 -7.332346,9.38164 1.561657,3.91289 9.224562,10.40777 9.224562,10.40777"
       style="fill:none;fill-opacity:1;stroke:#ffffff;stroke-opacity:1;stroke-width:1.8;stroke-miterlimit:4;stroke-dasharray:none" />
    <path
       style="fill:#ffffff;stroke-width:3.83777;stroke-linecap:round;stroke-linejoin:round;stroke-miterlimit:4;stroke-dasharray:0.383777, 0.38377699999999998;stroke-dashoffset:0;fill-opacity:1"
       id="path877"
       d="m 170.12707,133.87999 a 65.748955,50.535416 0 0 1 -32.87448,43.76495 65.748955,50.535416 0 0 1 -65.748956,0 65.748955,50.535416 0 0 1 -32.874476,-43.76495 z"
       sodipodi:type="arc"
       sodipodi:arc-type="chord"
       sodipodi:open="true"
       sodipodi:start="0"
       sodipodi:end="3.1415927"
       sodipodi:ry="50.535416"
       sodipodi:rx="65.748955"
       sodipodi:cy="133.87999"
       sodipodi:cx="104.37811" />
    <ellipse
       style="fill:none;fill-opacity:1;fill-rule:evenodd;stroke:#ffffff;stroke-width:5.3034;stroke-linecap:round;stroke-linejoin:round;stroke-miterlimit:4;stroke-dasharray:0.53034, 0.53034000000000003;stroke-dashoffset:0;stroke-opacity:1"
       id="path879"
       cx="28.177866"
       cy="144.59451"
       rx="14.424225"
       ry="10.984163" />
    <path
       style="fill:none;stroke:#ffffff;stroke-width:6.565;stroke-linecap:round;stroke-linejoin:round;stroke-miterlimit:4;stroke-dasharray:none;stroke-opacity:1"
       d="m 41.274999,188.64796 121.708331,0.26458"
       id="path3090" />
  </g>
</svg>
